<?xml version="1.0" encoding="utf-8"?>
<!-- Generator: Adobe Illustrator 23.1.1, SVG Export Plug-In . SVG Version: 6.00 Build 0)  -->
<svg version="1.1" id="Layer_1" xmlns="http://www.w3.org/2000/svg" xmlns:xlink="http://www.w3.org/1999/xlink" x="0px" y="0px"
	 viewBox="0 0 265.7 54.8" style="enable-background:new 0 0 265.7 54.8;" xml:space="preserve">
<style type="text/css">
	.st0{fill:#0066CC;}
	.st1{fill:#FFFFFF;}
</style>
<path class="st0" d="M228.6,20.6c-1.7-2.2-4.8-3.4-9.4-3.4c-3.6,0-6.5,0.8-8.5,2.7c-2.1,1.8-3.3,4.5-3.2,7.3c0,3.3,1,5.8,3,7.4
	s4.6,2.5,8.7,2.5c2.9,0,10.9-0.5,11.6-6.7H223c-0.6,2.7-2.5,2.7-3.7,2.7c-3.7,0-3.8-3.8-3.8-4.1h15.6
	C231.2,26,230.3,23.1,228.6,20.6z M215.4,24.8c0-2.1,1.7-3.8,3.8-3.8c1-0.1,1.9,0.3,2.6,1c0.7,0.7,1.1,1.7,1.1,2.8L215.4,24.8z"/>
<path class="st0" d="M200.1,12.2l-8.5,2.7v2.9h-4.1v4.5h4.1v9.9c-0.2,1.7,0.7,3.3,2.2,4c1.7,0.7,3.6,1.1,5.5,1c0.9,0,1.8,0,2.7-0.1
	l2.9-0.3v-4.3c-0.1,0-1.6,0.2-2.3,0.2c-0.7,0-1.3-0.1-1.9-0.5c-0.5-0.5-0.6-1-0.6-2v-7.9h4.8v-4.4h-4.8V12.2z"/>
<polygon class="st0" points="172.7,30.4 168.6,17.8 159.4,17.8 168.6,36.7 165.6,43.5 173.3,43.5 185.3,17.8 177.4,17.8 "/>
<path class="st0" d="M145.2,17.8c-1.2,0.4-2.4,0.9-3.4,1.7V9.7h-8.4v26.7h8.1c0.2-0.5,0.3-1,0.3-1.5v-0.6h0.1c0.6,0.8,1.4,1.5,2.3,2
	c0.4,0.2,0.8,0.3,1.3,0.5c0.9,0.2,1.8,0.3,2.8,0.3c2.5,0,9.8-1.5,9.8-10.4c0-2.9-0.7-4.9-2.2-6.5S151.3,16.1,145.2,17.8z M148.7,31
	c-0.5,1.3-1.5,1.7-3.1,1.7c-1.1,0-2.1-0.4-2.7-1.3c-0.7-1.2-1.1-2.7-1-4.1c0-1.4,0.2-2.7,0.7-4c0.6-1.2,1.8-1.9,3.1-1.8
	c1.7,0,2.7,0.5,3.2,1.5c0.5,1.2,0.7,2.5,0.6,3.8C149.5,28.3,149.2,29.7,148.7,31z"/>
<path class="st0" d="M128.3,23.7c0-4.6-3.8-6.5-8.9-6.5h-0.7c-3.9,0.1-8.1,1.4-8.5,5.5h3.8c0.2-2,2.3-3,4.7-3.1h0.2
	c3.6,0,5.8,1.1,5.8,4.7v0.5c-1.6,0-6.3,0.1-6.3,0.1c-6.7,0.2-9.5,2.1-9.5,6.1c0,3.5,3.2,6,7.9,6c3.6,0,6.3-1,8.1-3.3h0.1
	c0,0.9,0,1.7,0.1,2.6h3.5c-0.2-1.2-0.3-2.3-0.2-3.5L128.3,23.7z M124.8,28.2c0,6.4-6.6,6.5-7.1,6.5c-3.5,0-5-1.8-5-3.7
	c0-2.7,2.4-3.4,6-3.5c0,0,4.8-0.1,6-0.1L124.8,28.2z"/>
<polygon class="st0" points="105.6,17.9 101,17.9 94.6,24.7 88,17.9 83.1,17.9 91.7,26.8 82.5,36.4 87.2,36.4 94.2,28.8 101.2,36.4 
	106.4,36.4 96.8,26.8 "/>
<path class="st0" d="M70.1,17.2h-0.3c-6.5,0.1-10.5,3.7-10.5,10.3c0,5.8,3.9,9.5,10.5,9.6H70c4.1,0,9.1-1.3,9.8-6.2H76
	c-0.8,2.7-3.6,3.8-6.2,3.8c-3.7,0.1-6.7-2.8-6.9-6.5c0,0,0-0.1,0-0.1h17.4V27C80.3,20.7,76.7,17.2,70.1,17.2z M69.8,25.6H63
	c0.6-4,3.2-5.8,6.8-5.9H70c3.2,0,6.4,1.6,6.5,5.9H69.8z"/>
<path class="st0" d="M254.3,27.3c-1.7-1.4-4-1.9-6.6-2.5s-5.1-0.9-5.1-2.2s4.5-2,4.6,0.8h7.8c0,0,0.9-6.1-10.5-6.1
	c-7.4,0-10,3.4-10,5.6s1.3,4.2,6.6,5.5s6.9,1.9,6.5,3.4s-5.2,2-5.2-1.4h-7.9c0.1,2.9,2,5.4,4.8,6.2c4.9,1.4,12.3,0.7,14.8-1.8
	C256.2,32.5,256,28.6,254.3,27.3z"/>
<path class="st0" d="M1.4,42.1l21.3,12.3c0.9,0.5,1.9,0.5,2.8,0l21.3-12.3c0.9-0.5,1.4-1.4,1.4-2.4V15.1c0-1-0.5-1.9-1.4-2.4
	L25.5,0.4c-0.9-0.5-1.9-0.5-2.8,0L1.4,12.7C0.5,13.2,0,14.1,0,15.1v24.6C0,40.7,0.5,41.6,1.4,42.1z"/>
<path class="st1" d="M41.1,29v-1.8c0-10.1-6-15.9-16.5-15.9h-0.5c-10.6,0.2-17,6-17,16.7c0,9.4,6.3,15.4,17,15.6h0.3
	c6.6,0,14.7-2.1,15.9-10.1h-6.1c-1.3,4.3-5.8,6.1-10.1,6.1C17.5,39.4,13.5,35.1,13,29H41.1L41.1,29z M13.1,24.8
	c1-6.5,5.1-9.4,10.9-9.6h0.3c5.1,0,10.3,2.6,10.4,9.6L13.1,24.8L13.1,24.8z"/>
</svg>
